<?xml version="1.0" encoding="utf-8"?>
<!-- Generator: Adobe Illustrator 16.0.0, SVG Export Plug-In . SVG Version: 6.00 Build 0)  -->
<!DOCTYPE svg PUBLIC "-//W3C//DTD SVG 1.1//EN" "http://www.w3.org/Graphics/SVG/1.1/DTD/svg11.dtd">
<svg version="1.1" id="Layer_1" xmlns="http://www.w3.org/2000/svg" xmlns:xlink="http://www.w3.org/1999/xlink" x="0px" y="0px"
	 width="150px" height="94px" viewBox="0 15 150 94" enable-background="new 0 15 150 94" xml:space="preserve">
<polyline fill="#FF931E" stroke="#000000" stroke-miterlimit="10" points="265,63.5 227,63.5 227.5,63 227.5,91 228,90.5 247,90.5 
	247.5,90 247.5,102 248,101.5 228,101.5 228.5,101 228.5,120 229,119.5 265,119.5 265.5,119 265.5,131 266,130.5 216,130.5 
	216.5,130 216.5,54 216,54.5 264,54.5 264.5,54 264.5,64 "/>
<path fill="#1F8CCD" stroke="#000000" stroke-miterlimit="10" d="M161.168,105.75c18.977,0,34.332-11.74,34.332-26.25v0.25
	c0-14.509-15.654-26.25-35-26.25l1,0.5v77l-0.5,0.5h43c0-16.996-19.009-30.75-42.5-30.75"/>
<path fill="#A21717" d="M150,97c0,6.627-5.373,12-12,12H12c-6.627,0-12-5.373-12-12V27c0-6.627,5.373-12,12-12h126
	c6.627,0,12,5.373,12,12V97z"/>
<path fill="none" stroke="#000000" stroke-miterlimit="10" d="M163.5,60"/>
<path fill="#FFFFFF" stroke="#000000" stroke-miterlimit="10" d="M170.5,67c6.494,0,11.75,4.92,11.75,11
	c0,5.805-4.809,10.5-10.75,10.5V89V67"/>
<path fill="#FFFFFF" stroke="#000000" stroke-miterlimit="10" d="M170.188,125.688c0-6.494,5.015-11.844,11.095-11.844
	c5.804,0,10.594,4.656,10.594,10.656h0.5H170"/>
<g>
	<path fill="#FFF" d="M39.857,82.6c-4.073,0-7.837-0.765-11.294-2.291c-3.457-1.527-6.458-3.617-9.003-6.271
		c-2.546-2.652-4.529-5.799-5.949-9.445c-1.42-3.644-2.13-7.583-2.13-11.817c0-4.286,0.709-8.199,2.13-11.736
		c1.42-3.537,3.403-6.551,5.949-9.043c2.545-2.492,5.547-4.421,9.003-5.788c3.457-1.367,7.221-2.05,11.294-2.05H71.53v10.209H39.857
		c-2.626,0-5.052,0.47-7.275,1.407c-2.225,0.938-4.14,2.238-5.748,3.898c-1.607,1.662-2.867,3.646-3.778,5.949
		c-0.912,2.304-1.366,4.85-1.366,7.637c0,2.733,0.455,5.279,1.366,7.637c0.911,2.359,2.17,4.381,3.778,6.069
		s3.523,3.015,5.748,3.979c2.223,0.964,4.648,1.447,7.275,1.447H71.53V82.6H39.857z"/>
</g>
<g>
	<path fill="#FFF" d="M129.84,82.6l-8.646-14.518H93.902l4.759-8.171h17.692l-12.853-21.578L77.32,82.6h-11.5L98.98,27.386
		c0.58-1.005,1.27-1.798,2.062-2.38c0.794-0.581,1.745-0.873,2.854-0.873c1.113,0,2.051,0.292,2.817,0.873
		c0.767,0.583,1.44,1.375,2.021,2.38L141.977,82.6H129.84z"/>
</g>
<g>
	<path fill="#FFF" d="M11.257,99.35c-0.88,0-1.693-0.164-2.439-0.494s-1.395-0.78-1.944-1.354
		C6.325,96.93,5.896,96.25,5.59,95.463c-0.306-0.787-0.46-1.638-0.46-2.552c0-0.927,0.153-1.771,0.46-2.533
		c0.307-0.765,0.735-1.416,1.284-1.954c0.55-0.538,1.198-0.953,1.944-1.25c0.747-0.294,1.559-0.441,2.439-0.441h6.838v2.205h-6.838
		c-0.567,0-1.091,0.101-1.571,0.304c-0.481,0.202-0.894,0.481-1.241,0.842c-0.348,0.358-0.62,0.787-0.816,1.285
		c-0.196,0.497-0.295,1.046-0.295,1.647c0,0.592,0.099,1.139,0.295,1.649c0.196,0.508,0.468,0.946,0.816,1.31
		c0.348,0.365,0.76,0.651,1.241,0.859c0.48,0.208,1.004,0.312,1.571,0.312h6.838v2.205h-6.838V99.35z"/>
	<path fill="#FFF" d="M31.6,99.35l-3.193-3.506h-4.722V93.9h5.259c0.798,0,1.4-0.219,1.805-0.65
		c0.405-0.436,0.607-1.062,0.607-1.883c0-0.823-0.211-1.434-0.633-1.832c-0.422-0.399-1.016-0.6-1.779-0.6H22.07V99.35h-2.188V86.73
		h9.061c0.717,0,1.359,0.107,1.926,0.32c0.567,0.215,1.048,0.521,1.441,0.92c0.394,0.4,0.694,0.883,0.903,1.449
		c0.208,0.566,0.312,1.204,0.312,1.91c0,1.052-0.228,1.936-0.686,2.646c-0.457,0.711-1.097,1.224-1.918,1.537l3.802,3.834H31.6
		V99.35z"/>
	<path fill="#FFF" d="M40.157,99.35v-4.791l-6.7-7.828h2.968l4.913,5.816l4.929-5.816h2.812l-6.717,7.828v4.791H40.157z"/>
	<path fill="#FFF" d="M54.199,95.844v-2.136h5.068c0.775,0,1.38-0.219,1.814-0.659c0.434-0.439,0.651-1.02,0.651-1.734
		c0-0.729-0.217-1.31-0.651-1.736c-0.434-0.428-1.039-0.643-1.814-0.643h-6.682V99.35h-2.188V86.73h8.87
		c0.729,0,1.38,0.107,1.953,0.32c0.573,0.215,1.056,0.516,1.45,0.902c0.393,0.389,0.694,0.859,0.902,1.415s0.313,1.18,0.313,1.875
		c0,0.683-0.105,1.304-0.313,1.866c-0.208,0.561-0.509,1.043-0.902,1.447c-0.394,0.405-0.877,0.723-1.45,0.946
		c-0.573,0.226-1.224,0.339-1.953,0.339h-5.068V95.844z"/>
	<path fill="#FFF" d="M69.491,99.35V88.936h-4.79V86.73h11.785v2.205h-4.791V99.35H69.491z"/>
	<path fill="#FFF" d="M83.412,99.35c-0.88,0-1.691-0.164-2.439-0.494c-0.746-0.33-1.395-0.78-1.943-1.354
		c-0.549-0.572-0.979-1.252-1.284-2.039s-0.46-1.638-0.46-2.552c0-0.927,0.152-1.771,0.46-2.533
		c0.307-0.765,0.735-1.416,1.284-1.954c0.55-0.538,1.197-0.953,1.943-1.25c0.748-0.294,1.561-0.441,2.439-0.441h3.072
		c0.912,0,1.748,0.15,2.508,0.451c0.758,0.301,1.408,0.724,1.953,1.268c0.543,0.544,0.966,1.195,1.267,1.951
		c0.302,0.759,0.451,1.596,0.451,2.51s-0.153,1.765-0.46,2.552s-0.735,1.468-1.284,2.039c-0.55,0.573-1.2,1.024-1.952,1.354
		c-0.753,0.328-1.58,0.494-2.482,0.494h-3.072V99.35z M86.484,97.145c0.578,0,1.109-0.104,1.597-0.312
		c0.485-0.208,0.905-0.494,1.259-0.858c0.354-0.363,0.627-0.803,0.824-1.311c0.195-0.512,0.295-1.059,0.295-1.648
		c0-0.591-0.1-1.138-0.295-1.642c-0.197-0.503-0.473-0.935-0.824-1.293c-0.354-0.358-0.773-0.64-1.259-0.842
		c-0.485-0.203-1.019-0.304-1.597-0.304h-3.072c-0.566,0-1.092,0.101-1.571,0.304c-0.479,0.202-0.894,0.481-1.241,0.842
		c-0.348,0.358-0.619,0.787-0.814,1.285c-0.197,0.497-0.296,1.046-0.296,1.647c0,0.592,0.099,1.139,0.296,1.649
		c0.195,0.508,0.468,0.946,0.814,1.31c0.349,0.365,0.762,0.651,1.241,0.859s1.005,0.312,1.571,0.312H86.484L86.484,97.145z"/>
	<path fill="#FFF" d="M105.924,99.35l-1.892-3.176h-5.972l1.041-1.789h3.871l-2.812-4.72l-5.729,9.685h-2.517l7.255-12.08
		c0.128-0.22,0.278-0.394,0.452-0.521c0.173-0.127,0.381-0.191,0.625-0.191c0.242,0,0.448,0.064,0.616,0.191
		c0.166,0.128,0.314,0.302,0.441,0.521l7.272,12.08H105.924L105.924,99.35z"/>
	<path fill="#FFF" d="M109.934,99.35V86.73h7.309c0.891,0,1.714,0.15,2.466,0.451s1.397,0.723,1.944,1.268
		c0.541,0.544,0.968,1.195,1.275,1.951c0.305,0.759,0.459,1.596,0.459,2.51s-0.154,1.765-0.459,2.552
		c-0.309,0.787-0.734,1.468-1.275,2.039c-0.547,0.573-1.192,1.024-1.944,1.354c-0.752,0.328-1.575,0.494-2.466,0.494H109.934
		L109.934,99.35z M117.241,97.145c0.567,0,1.091-0.104,1.571-0.312s0.896-0.494,1.248-0.858c0.354-0.363,0.629-0.803,0.826-1.311
		c0.196-0.512,0.295-1.059,0.295-1.648c0-0.591-0.099-1.138-0.295-1.642c-0.197-0.503-0.473-0.935-0.826-1.293
		c-0.352-0.358-0.768-0.64-1.248-0.842c-0.48-0.203-1.004-0.304-1.571-0.304h-5.119v8.209H117.241L117.241,97.145z"/>
	<path fill="#FFF" d="M122.657,86.73h2.69l5.729,9.721l5.711-9.721h2.533l-7.272,12.082c-0.128,0.22-0.278,0.393-0.45,0.521
		c-0.175,0.126-0.377,0.19-0.609,0.19c-0.241,0-0.449-0.064-0.623-0.19c-0.176-0.128-0.324-0.301-0.452-0.521L122.657,86.73z"/>
	<path fill="#FFF" d="M140.795,99.35V86.73H143V99.35H140.795z"/>
</g>
</svg>